<?xml version="1.0" encoding="UTF-8" standalone="no"?>
<!-- Generator: Adobe Illustrator 19.0.0, SVG Export Plug-In . SVG Version: 6.00 Build 0)  -->

<svg
   version="1.1"
   x="0px"
   y="0px"
   viewBox="0 0 4523.23 1346.89"
   xml:space="preserve"
   id="svg9"
   width="4523.23"
   height="1346.89"
   xmlns="http://www.w3.org/2000/svg"
   xmlns:svg="http://www.w3.org/2000/svg"><defs
   id="defs9"><clipPath
     clipPathUnits="userSpaceOnUse"
     id="clipPath9"><rect
       style="fill:#f4000b;stroke-linecap:round;stroke-linejoin:round"
       id="rect10"
       width="38.299999"
       height="36.700001"
       x="0"
       y="0"
       ry="1.110223e-16" /></clipPath></defs>
<style
   type="text/css"
   id="style1">
	.st0{opacity:0;fill:#303030;}
	.st1{fill:#292E31;}
	.st2{fill:#828282;}
	.st3{fill:#C6C6C6;}
	.st4{fill:#00AFD1;}
	.st5{fill:#4AE1FF;}
</style>
<g
   id="Layer_1"
   clip-path="url(#clipPath9)"
   transform="translate(-3755.5798,-36.700002)">
	<rect
   x="-315.20001"
   y="-230.2"
   class="st0"
   width="800"
   height="500"
   id="rect1" />
	<g
   id="XMLID_17_">
		<path
   id="XMLID_18_"
   class="st1"
   d="m 52.5,22.3 c 0.3,2 2,3.4 4.8,3.4 1.5,0 3.4,-0.5 4.3,-1.5 l 2.5,2.5 c -1.7,1.7 -4.4,2.6 -6.9,2.6 -5.5,0 -8.8,-3.4 -8.8,-8.4 0,-4.8 3.3,-8.3 8.5,-8.3 5.3,0 8.7,3.3 8.1,9.8 H 52.5 Z m 8.7,-3.2 C 60.9,17.1 59.3,16 57.1,16 55,16 53.2,17 52.6,19.1 Z" />
		<path
   id="XMLID_21_"
   class="st1"
   d="m 81.7,26.8 c -1.8,1.8 -3.8,2.5 -6.1,2.5 -4.6,0 -8.5,-2.8 -8.5,-8.4 0,-5.6 3.9,-8.4 8.5,-8.4 2.3,0 4,0.6 5.8,2.3 l -2.5,2.6 C 78,16.6 76.8,16.2 75.7,16.2 73,16.3 71,18.2 71,21 c 0,3 2.1,4.6 4.5,4.6 1.3,0 2.5,-0.4 3.5,-1.3 z" />
		<path
   id="XMLID_25_"
   class="st1"
   d="m 87.4,6.4 v 8.8 c 1.4,-1.8 3.2,-2.4 5,-2.4 4.5,0 6.5,3 6.5,7.7 v 8.3 H 95 v -8.3 c 0,-2.9 -1.5,-4.1 -3.6,-4.1 -2.3,0 -3.9,2 -3.9,4.3 v 8.1 H 83.6 V 6.4 Z" />
		<path
   id="XMLID_27_"
   class="st1"
   d="m 118.1,21 c 0,4.5 -3.1,8.2 -8.3,8.2 -5.2,0 -8.3,-3.7 -8.3,-8.2 0,-4.5 3.2,-8.2 8.3,-8.2 5.1,0 8.3,3.7 8.3,8.2 z m -12.6,0 c 0,2.4 1.5,4.6 4.3,4.6 2.9,0 4.3,-2.2 4.3,-4.6 0,-2.4 -1.7,-4.7 -4.3,-4.7 -2.8,0 -4.3,2.3 -4.3,4.7 z" />
	</g>
</g>
<g
   id="Layer_2"
   transform="translate(-3723.7798,-35.700002)">
	<g
   id="XMLID_1_">
		<polygon
   id="XMLID_2_"
   class="st2"
   points="5.9,6.2 0.8,3.2 6.1,0.2 11.3,3.2 " />
		<polygon
   id="XMLID_3_"
   class="st2"
   points="12.4,9.8 7.2,6.9 12.5,3.8 17.8,6.9 " />
		<polygon
   id="XMLID_4_"
   class="st3"
   points="25.8,9.8 20.7,6.8 26,3.7 31.2,6.8 " />
		<polygon
   id="XMLID_5_"
   class="st3"
   points="32.4,6 27.3,3.1 32.6,0 37.8,3.1 " />
		<polygon
   id="XMLID_6_"
   class="st4"
   points="5.3,7.3 0,4.2 0,10.8 5.3,13.8 " />
		<polygon
   id="XMLID_7_"
   class="st4"
   points="12,11 6.6,7.9 6.6,14.5 12,17.4 " />
		<polygon
   id="XMLID_8_"
   class="st4"
   points="18.4,14.5 13.1,11.4 13.1,18 18.4,20.9 " />
		<polygon
   class="st5"
   points="32.9,7.4 38.3,4.3 38.3,10.9 32.9,13.9 "
   id="polygon1" />
		<polygon
   class="st5"
   points="26.3,11.1 31.6,8 31.6,14.6 26.3,17.5 "
   id="polygon2" />
		<polygon
   class="st5"
   points="19.8,14.6 25.1,11.5 25.1,18.1 19.8,21 "
   id="polygon3" />
		<polygon
   id="XMLID_9_"
   class="st4"
   points="5.3,15.2 0,12.1 0,18.7 5.3,21.6 " />
		<polygon
   id="XMLID_10_"
   class="st4"
   points="12,18.9 6.6,15.7 6.6,22.3 12,25.3 " />
		<polygon
   id="XMLID_11_"
   class="st4"
   points="18.4,22.3 13.1,19.2 13.1,25.8 18.4,28.7 " />
		<polygon
   class="st5"
   points="32.9,15.3 38.3,12.2 38.3,18.8 32.9,21.7 "
   id="polygon4" />
		<polygon
   class="st5"
   points="26.3,19 31.6,15.9 31.6,22.5 26.3,25.4 "
   id="polygon5" />
		<polygon
   class="st5"
   points="19.8,22.4 25.1,19.3 25.1,25.9 19.8,28.8 "
   id="polygon6" />
		<polygon
   id="XMLID_12_"
   class="st4"
   points="5.3,23 0,19.9 0,26.5 5.3,29.5 " />
		<polygon
   id="XMLID_13_"
   class="st4"
   points="12,26.7 6.6,23.6 6.6,30.2 12,33.1 " />
		<polygon
   id="XMLID_14_"
   class="st4"
   points="18.4,30.2 13.1,27.1 13.1,33.7 18.4,36.6 " />
		<polygon
   class="st5"
   points="32.9,23.2 38.3,20 38.3,26.6 32.9,29.6 "
   id="polygon7" />
		<polygon
   class="st5"
   points="26.3,26.8 31.6,23.7 31.6,30.3 26.3,33.2 "
   id="polygon8" />
		<polygon
   class="st5"
   points="19.8,30.3 25.1,27.2 25.1,33.8 19.8,36.7 "
   id="polygon9" />
		<g
   id="XMLID_15_">
			<polygon
   id="XMLID_22_"
   class="st2"
   points="19.1,13.4 19.2,7.4 13.9,10.5 19.1,13.4 " />
			<polygon
   id="XMLID_23_"
   class="st3"
   points="19.2,7.4 19.1,13.4 24.4,10.5 " />
		</g>
	</g>
</g>
</svg>
